<svg width="24" height="27" viewBox="0 0 24 27" fill="none" xmlns="http://www.w3.org/2000/svg">
<path fill-rule="evenodd" clip-rule="evenodd" d="M7.5 6.55556C7.5 4.03009 9.52417 2 12 2C14.4758 2 16.5 4.03009 16.5 6.55556C16.5 9.08102 14.4758 11.1111 12 11.1111C9.52417 11.1111 7.5 9.08102 7.5 6.55556ZM12 0C8.4007 0 5.5 2.94452 5.5 6.55556C5.5 10.1666 8.4007 13.1111 12 13.1111C15.5993 13.1111 18.5 10.1666 18.5 6.55556C18.5 2.94452 15.5993 0 12 0ZM6.5 16.6667C4.77283 16.6667 3.11846 17.3598 1.90026 18.5903C0.682403 19.8205 0 21.4868 0 23.2222V26C0 26.5523 0.447715 27 1 27C1.55228 27 2 26.5523 2 26V23.2222C2 22.0108 2.47652 20.851 3.32156 19.9974C4.16627 19.1442 5.30979 18.6667 6.5 18.6667H17.5C18.6902 18.6667 19.8337 19.1442 20.6784 19.9974C21.5235 20.851 22 22.0108 22 23.2222V26C22 26.5523 22.4477 27 23 27C23.5523 27 24 26.5523 24 26V23.2222C24 21.4868 23.3176 19.8205 22.0997 18.5903C20.8815 17.3598 19.2272 16.6667 17.5 16.6667H6.5Z" fill="black"/>
</svg>
