<?xml version="1.0" encoding="utf-8"?><svg viewBox="0 0 160 50" xmlns="http://www.w3.org/2000/svg" xmlns:xlink="http://www.w3.org/1999/xlink"><style>:root>svg{display:none}:root>svg:target{display:block}</style><svg fill="none" viewBox="0 0 25 27" id="cart" xmlns="http://www.w3.org/2000/svg"><path fill-rule="evenodd" clip-rule="evenodd" d="M4.04.392A1 1 0 014.833 0h15.334a1 1 0 01.793.392l3.828 4.992c.133.17.212.384.212.616v17.5c0 .935-.38 1.828-1.05 2.483A3.585 3.585 0 0121.445 27H3.556a3.585 3.585 0 01-2.507-1.017A3.473 3.473 0 010 23.5V6c0-.232.08-.446.212-.616L4.04.392zM19.673 2l2.3 3H3.027l2.3-3h14.346zM2 23.5V7h21v16.5c0 .39-.158.77-.448 1.053-.29.284-.688.447-1.108.447H3.556c-.42 0-.818-.163-1.108-.447A1.473 1.473 0 012 23.5zM8.389 11a1 1 0 10-2 0c0 1.598.65 3.127 1.798 4.25A6.17 6.17 0 0012.5 17a6.17 6.17 0 004.313-1.75A5.946 5.946 0 0018.611 11a1 1 0 10-2 0 3.945 3.945 0 01-1.196 2.82A4.169 4.169 0 0112.5 15a4.17 4.17 0 01-2.915-1.18A3.945 3.945 0 018.39 11z" fill="#000"/></svg><svg fill="none" viewBox="0 0 30 27" id="favourite" xmlns="http://www.w3.org/2000/svg"><path d="M26.84 3.21a7.357 7.357 0 00-2.39-1.636 7.22 7.22 0 00-5.64 0 7.359 7.359 0 00-2.39 1.636L15 4.664 13.58 3.21A7.284 7.284 0 008.369 1a7.284 7.284 0 00-5.21 2.21A7.635 7.635 0 001 8.544c0 2 .776 3.92 2.158 5.334l1.42 1.454L15 26 25.42 15.332l1.42-1.454a7.556 7.556 0 001.598-2.447 7.698 7.698 0 000-5.774A7.557 7.557 0 0026.84 3.21v0z" stroke="#000" stroke-width="2" stroke-linecap="round" stroke-linejoin="round"/></svg><svg fill="none" viewBox="0 0 24 27" id="login" xmlns="http://www.w3.org/2000/svg"><path fill-rule="evenodd" clip-rule="evenodd" d="M7.5 6.556C7.5 4.03 9.524 2 12 2s4.5 2.03 4.5 4.556c0 2.525-2.024 4.555-4.5 4.555s-4.5-2.03-4.5-4.555zM12 0C8.4 0 5.5 2.945 5.5 6.556c0 3.61 2.9 6.555 6.5 6.555s6.5-2.944 6.5-6.555C18.5 2.945 15.6 0 12 0zM6.5 16.667a6.472 6.472 0 00-4.6 1.923A6.584 6.584 0 000 23.222V26a1 1 0 102 0v-2.778c0-1.211.477-2.371 1.322-3.225a4.472 4.472 0 013.178-1.33h11c1.19 0 2.334.477 3.178 1.33A4.584 4.584 0 0122 23.222V26a1 1 0 102 0v-2.778a6.584 6.584 0 00-1.9-4.632 6.472 6.472 0 00-4.6-1.923h-11z" fill="#000"/></svg><svg fill="none" viewBox="0 0 160 50" id="logo" xmlns="http://www.w3.org/2000/svg"><path d="M0 49.51V.49h7.242v44.048H25.81v4.972H0zM40.006 12.325c0-3.782 1.207-6.77 3.62-8.964C46.104 1.121 49.848 0 54.86 0c5.014 0 8.758 1.12 11.234 3.361 2.476 2.195 3.714 5.182 3.714 8.964v25.35c0 3.735-1.238 6.723-3.714 8.964C63.618 48.879 59.874 50 54.86 50c-5.013 0-8.758-1.12-11.233-3.361-2.414-2.241-3.621-5.23-3.621-8.964v-25.35zm7.149 25.63c0 2.241.619 3.992 1.856 5.252 1.3 1.214 3.25 1.821 5.85 1.821 2.66 0 4.61-.607 5.848-1.82 1.238-1.261 1.857-3.012 1.857-5.253v-25.91c0-2.241-.619-3.968-1.857-5.182-1.238-1.26-3.187-1.891-5.849-1.891-2.6 0-4.549.63-5.849 1.89-1.237 1.215-1.856 2.942-1.856 5.183v25.91zM99.95 0c5.013 0 8.696 1.12 11.048 3.361 2.414 2.241 3.621 5.23 3.621 8.964v4.202h-6.87v-4.482c0-2.241-.619-3.968-1.857-5.182-1.176-1.26-3.095-1.891-5.756-1.891-2.6 0-4.518.63-5.756 1.89-1.238 1.215-1.857 2.942-1.857 5.183v25.91c0 2.241.619 3.992 1.857 5.252 1.238 1.214 3.156 1.821 5.756 1.821 2.661 0 4.58-.607 5.756-1.82 1.238-1.261 1.857-3.012 1.857-5.253v-9.804h-6.685V23.25h13.555v14.426c0 3.735-1.207 6.723-3.621 8.964C108.646 48.879 104.963 50 99.95 50c-4.951 0-8.634-1.12-11.048-3.361-2.352-2.241-3.528-5.23-3.528-8.964v-25.35c0-1.867.279-3.548.836-5.042.619-1.54 1.516-2.848 2.692-3.922 1.238-1.073 2.754-1.89 4.55-2.45C95.307.302 97.473 0 99.95 0zM130.198 12.325c0-3.782 1.207-6.77 3.621-8.964C136.295 1.121 140.039 0 145.053 0c5.013 0 8.758 1.12 11.233 3.361C158.762 5.556 160 8.543 160 12.325v25.35c0 3.735-1.238 6.723-3.714 8.964-2.475 2.24-6.22 3.361-11.233 3.361-5.014 0-8.758-1.12-11.234-3.361-2.414-2.241-3.621-5.23-3.621-8.964v-25.35zm7.149 25.63c0 2.241.619 3.992 1.857 5.252 1.3 1.214 3.249 1.821 5.849 1.821 2.661 0 4.611-.607 5.849-1.82 1.238-1.261 1.856-3.012 1.856-5.253v-25.91c0-2.241-.618-3.968-1.856-5.182-1.238-1.26-3.188-1.891-5.849-1.891-2.6 0-4.549.63-5.849 1.89-1.238 1.215-1.857 2.942-1.857 5.183v25.91z" fill="#000"/></svg><svg fill="none" viewBox="0 0 27 27" id="search" xmlns="http://www.w3.org/2000/svg"><path d="M12.111 23.222c6.137 0 11.111-4.974 11.111-11.11C23.222 5.974 18.248 1 12.112 1 5.974 1 1 5.975 1 12.111c0 6.137 4.975 11.111 11.111 11.111zM26 26l-6.042-6.042" stroke="#000" stroke-width="2" stroke-linecap="round" stroke-linejoin="round"/></svg><svg fill="none" viewBox="0 0 16 9" id="select" xmlns="http://www.w3.org/2000/svg"><path d="M14.667 1L8 7.667 1.333 1" stroke="#000"/></svg></svg>